<mxfile host="app.diagrams.net" agent="Mozilla/5.0 (Windows NT 10.0; Win64; x64) AppleWebKit/537.36 (KHTML, like Gecko) Chrome/140.0.0.0 Safari/537.36" version="28.2.3">
  <diagram name="Trang-1" id="36r2XoEmwV57Uj1d5jNs">
    <mxGraphModel dx="1042" dy="527" grid="1" gridSize="10" guides="1" tooltips="1" connect="1" arrows="1" fold="1" page="1" pageScale="1" pageWidth="827" pageHeight="1169" math="0" shadow="0">
      <root>
        <mxCell id="0" />
        <mxCell id="1" parent="0" />
        <mxCell id="aZASOS7vV6Kz1vHKgl3i-3" value="" style="edgeStyle=orthogonalEdgeStyle;rounded=0;orthogonalLoop=1;jettySize=auto;html=1;" edge="1" parent="1" source="aZASOS7vV6Kz1vHKgl3i-1" target="aZASOS7vV6Kz1vHKgl3i-2">
          <mxGeometry relative="1" as="geometry" />
        </mxCell>
        <mxCell id="aZASOS7vV6Kz1vHKgl3i-1" value="bắt đầu" style="ellipse;whiteSpace=wrap;html=1;" vertex="1" parent="1">
          <mxGeometry x="354" y="40" width="120" height="80" as="geometry" />
        </mxCell>
        <mxCell id="aZASOS7vV6Kz1vHKgl3i-5" value="" style="edgeStyle=orthogonalEdgeStyle;rounded=0;orthogonalLoop=1;jettySize=auto;html=1;" edge="1" parent="1" source="aZASOS7vV6Kz1vHKgl3i-2" target="aZASOS7vV6Kz1vHKgl3i-4">
          <mxGeometry relative="1" as="geometry" />
        </mxCell>
        <mxCell id="aZASOS7vV6Kz1vHKgl3i-2" value="Nhập N" style="shape=parallelogram;perimeter=parallelogramPerimeter;whiteSpace=wrap;html=1;fixedSize=1;" vertex="1" parent="1">
          <mxGeometry x="354" y="210" width="120" height="60" as="geometry" />
        </mxCell>
        <mxCell id="aZASOS7vV6Kz1vHKgl3i-7" value="" style="edgeStyle=orthogonalEdgeStyle;rounded=0;orthogonalLoop=1;jettySize=auto;html=1;" edge="1" parent="1" source="aZASOS7vV6Kz1vHKgl3i-4" target="aZASOS7vV6Kz1vHKgl3i-6">
          <mxGeometry relative="1" as="geometry" />
        </mxCell>
        <mxCell id="aZASOS7vV6Kz1vHKgl3i-4" value="Tích ban đầu&amp;nbsp; = 1&lt;div&gt;i= 1&lt;/div&gt;" style="whiteSpace=wrap;html=1;" vertex="1" parent="1">
          <mxGeometry x="354" y="300" width="120" height="60" as="geometry" />
        </mxCell>
        <mxCell id="aZASOS7vV6Kz1vHKgl3i-9" value="" style="edgeStyle=orthogonalEdgeStyle;rounded=0;orthogonalLoop=1;jettySize=auto;html=1;" edge="1" parent="1" source="aZASOS7vV6Kz1vHKgl3i-6" target="aZASOS7vV6Kz1vHKgl3i-8">
          <mxGeometry relative="1" as="geometry" />
        </mxCell>
        <mxCell id="aZASOS7vV6Kz1vHKgl3i-11" value="" style="edgeStyle=orthogonalEdgeStyle;rounded=0;orthogonalLoop=1;jettySize=auto;html=1;" edge="1" parent="1" source="aZASOS7vV6Kz1vHKgl3i-6" target="aZASOS7vV6Kz1vHKgl3i-10">
          <mxGeometry relative="1" as="geometry" />
        </mxCell>
        <mxCell id="aZASOS7vV6Kz1vHKgl3i-12" value="N" style="edgeLabel;html=1;align=center;verticalAlign=middle;resizable=0;points=[];" vertex="1" connectable="0" parent="aZASOS7vV6Kz1vHKgl3i-11">
          <mxGeometry x="-0.08" y="-4" relative="1" as="geometry">
            <mxPoint as="offset" />
          </mxGeometry>
        </mxCell>
        <mxCell id="aZASOS7vV6Kz1vHKgl3i-13" value="" style="edgeStyle=orthogonalEdgeStyle;rounded=0;orthogonalLoop=1;jettySize=auto;html=1;" edge="1" parent="1" source="aZASOS7vV6Kz1vHKgl3i-6" target="aZASOS7vV6Kz1vHKgl3i-8">
          <mxGeometry relative="1" as="geometry" />
        </mxCell>
        <mxCell id="aZASOS7vV6Kz1vHKgl3i-14" value="Y" style="edgeLabel;html=1;align=center;verticalAlign=middle;resizable=0;points=[];" vertex="1" connectable="0" parent="aZASOS7vV6Kz1vHKgl3i-13">
          <mxGeometry x="-0.12" y="4" relative="1" as="geometry">
            <mxPoint as="offset" />
          </mxGeometry>
        </mxCell>
        <mxCell id="aZASOS7vV6Kz1vHKgl3i-6" value="i≤N" style="rhombus;whiteSpace=wrap;html=1;" vertex="1" parent="1">
          <mxGeometry x="374" y="430" width="80" height="80" as="geometry" />
        </mxCell>
        <mxCell id="aZASOS7vV6Kz1vHKgl3i-16" value="" style="edgeStyle=orthogonalEdgeStyle;rounded=0;orthogonalLoop=1;jettySize=auto;html=1;" edge="1" parent="1" source="aZASOS7vV6Kz1vHKgl3i-8" target="aZASOS7vV6Kz1vHKgl3i-15">
          <mxGeometry relative="1" as="geometry">
            <Array as="points">
              <mxPoint x="580" y="700" />
            </Array>
          </mxGeometry>
        </mxCell>
        <mxCell id="aZASOS7vV6Kz1vHKgl3i-8" value="tích=tích ban đầu * i&lt;div&gt;i=i+1&amp;nbsp;&lt;/div&gt;" style="whiteSpace=wrap;html=1;" vertex="1" parent="1">
          <mxGeometry x="514" y="440" width="120" height="60" as="geometry" />
        </mxCell>
        <mxCell id="aZASOS7vV6Kz1vHKgl3i-10" value="tích" style="whiteSpace=wrap;html=1;" vertex="1" parent="1">
          <mxGeometry x="194" y="440" width="120" height="60" as="geometry" />
        </mxCell>
        <mxCell id="aZASOS7vV6Kz1vHKgl3i-19" value="" style="edgeStyle=orthogonalEdgeStyle;rounded=0;orthogonalLoop=1;jettySize=auto;html=1;" edge="1" parent="1" source="aZASOS7vV6Kz1vHKgl3i-15" target="aZASOS7vV6Kz1vHKgl3i-18">
          <mxGeometry relative="1" as="geometry" />
        </mxCell>
        <mxCell id="aZASOS7vV6Kz1vHKgl3i-15" value="In đáp án&amp;nbsp;" style="shape=parallelogram;perimeter=parallelogramPerimeter;whiteSpace=wrap;html=1;fixedSize=1;" vertex="1" parent="1">
          <mxGeometry x="350" y="660" width="120" height="60" as="geometry" />
        </mxCell>
        <mxCell id="aZASOS7vV6Kz1vHKgl3i-17" value="" style="endArrow=classic;html=1;rounded=0;exitX=0.5;exitY=1;exitDx=0;exitDy=0;entryX=0;entryY=0.25;entryDx=0;entryDy=0;" edge="1" parent="1" source="aZASOS7vV6Kz1vHKgl3i-10" target="aZASOS7vV6Kz1vHKgl3i-15">
          <mxGeometry width="50" height="50" relative="1" as="geometry">
            <mxPoint x="390" y="640" as="sourcePoint" />
            <mxPoint x="440" y="590" as="targetPoint" />
            <Array as="points">
              <mxPoint x="250" y="680" />
            </Array>
          </mxGeometry>
        </mxCell>
        <mxCell id="aZASOS7vV6Kz1vHKgl3i-18" value="kết thúc" style="ellipse;whiteSpace=wrap;html=1;" vertex="1" parent="1">
          <mxGeometry x="350" y="820" width="120" height="80" as="geometry" />
        </mxCell>
      </root>
    </mxGraphModel>
  </diagram>
</mxfile>
